# xmcd
#
# Track frame offsets: 
#        150
#        22645
#        41217
#        59137
#        75002
#        89765
#        104447
#        118520
#        134620
#        171462
#
# Disc length: 2509 seconds
#
# Revision: 2
# Processed by: cddbd v1.5.2PL0 Copyright (c) Steve Scherf et al.
# Submitted via: ExactAudioCopyFreeDBPlugin 1.0
#
DISCID=8509cb0a
DTITLE=Various Artist - Rhythm and Blues Christmas Vol. 1
DYEAR=2001
DGENRE=Holiday
TTITLE0=The O'Jays - Have Yourself a Merry Little Christmas
TTITLE1=Deniece Williams - Do You Hear What I Hear?
TTITLE2=Freddie Jackson - Christmas Forever
TTITLE3=Lou Rawls - The Christmas Song
TTITLE4=Darryl Tokes - Merry Christmas Darling
TTITLE5=Al Green - I'll Be Home for Christmas
TTITLE6=Dianne Reeves - A Merrier Christmas
TTITLE7=Fats Domino - Silver Bells
TTITLE8=Diane Reeves - O Holy Night (ft The Boys Choir of Harlem)
TTITLE9=Stanley Jordan - Silent Night
EXTD=ID3G: 14
EXTT0=
EXTT1=
EXTT2=
EXTT3=
EXTT4=
EXTT5=
EXTT6=
EXTT7=
EXTT8=
EXTT9=
PLAYORDER=
